<?xml version="1.0" encoding="UTF-8" standalone="no"?>
<!DOCTYPE svg PUBLIC "-//W3C//DTD SVG 1.1//EN" "http://www.w3.org/Graphics/SVG/1.1/DTD/svg11.dtd">
<!-- 由 Microsoft Visio, SVG Export 生成 sample_graph.svg Page-1 -->
<svg xmlns="http://www.w3.org/2000/svg" xmlns:xlink="http://www.w3.org/1999/xlink" xmlns:ev="http://www.w3.org/2001/xml-events"
		xmlns:v="http://schemas.microsoft.com/visio/2003/SVGExtensions/" width="11.6929in" height="8.26772in"
		viewBox="0 0 841.89 595.276" xml:space="preserve" color-interpolation-filters="sRGB" class="st11">
	<v:documentProperties v:langID="2052" v:metric="true" v:viewMarkup="false">
		<v:userDefs>
			<v:ud v:nameU="msvNoAutoConnect" v:val="VT0(1):26"/>
		</v:userDefs>
	</v:documentProperties>

	<style type="text/css">
	<![CDATA[
		.st1 {fill:#923931;stroke:#000000;stroke-linecap:round;stroke-linejoin:round;stroke-width:0.75}
		.st2 {fill:#000000;fill-opacity:1;stroke:#000000;stroke-opacity:1;stroke-width:0.22935779816514}
		.st3 {fill:#ffd965;stroke:#bf9000;stroke-linecap:round;stroke-linejoin:round;stroke-width:0.75}
		.st4 {fill:#00b0f0;stroke:#0070c0;stroke-linecap:round;stroke-linejoin:round;stroke-width:0.75}
		.st5 {marker-start:url(#mrkr13-24);stroke:#000000;stroke-linecap:round;stroke-linejoin:round;stroke-width:1.5}
		.st6 {fill:#000000;fill-opacity:1;stroke:#000000;stroke-opacity:1;stroke-width:0.37313432835821}
		.st7 {stroke:#000000;stroke-dasharray:11.25,6.75;stroke-linecap:round;stroke-linejoin:round;stroke-width:0.75}
		.st8 {fill:none;stroke:none;stroke-linecap:round;stroke-linejoin:round;stroke-width:0.75}
		.st9 {fill:#000000;font-family:宋体;font-size:1.33333em}
		.st10 {font-family:Calibri;font-size:1em}
		.st11 {fill:none;fill-rule:evenodd;font-size:12px;overflow:visible;stroke-linecap:square;stroke-miterlimit:3}
	]]>
	</style>

	<defs id="Markers">
		<g id="lend13">
			<path d="M 3 1 L 0 0 L 3 -1 L 3 1 " style="stroke:none"/>
		</g>
		<marker id="mrkr13-4" class="st2" v:arrowType="13" v:arrowSize="2" v:setback="13.08" refX="13.08" orient="auto"
				markerUnits="strokeWidth" overflow="visible">
			<use xlink:href="#lend13" transform="scale(4.36) "/>
		</marker>
		<marker id="mrkr13-24" class="st6" v:arrowType="13" v:arrowSize="2" v:setback="7.8" refX="7.8" orient="auto"
				markerUnits="strokeWidth" overflow="visible">
			<use xlink:href="#lend13" transform="scale(2.68) "/>
		</marker>
	</defs>
	<g v:mID="0" v:index="1" v:groupContext="foregroundPage">
		<title>页-1</title>
		<v:pageProperties v:drawingScale="0.0393701" v:pageScale="0.0393701" v:drawingUnits="24" v:shadowOffsetX="8.50394"
				v:shadowOffsetY="-8.50394"/>
		<v:layer v:name="连接线" v:index="0"/>
		<g id="shape40-1" v:mID="40" v:groupContext="shape" transform="translate(56.6929,-180.735)">
			<title>工作表.40</title>
			<path d="M0 595.28 L180 559.9 L178.58 333.12 L0 368.61 L0 595.28 Z" class="st1"/>
		</g>
		<g id="shape19-5" v:mID="19" v:groupContext="shape" transform="translate(95.6693,-368.982)">
			<title>工作表.19</title>
			<ellipse cx="11.3386" cy="583.937" rx="11.3386" ry="11.3386" class="st3"/>
		</g>
		<g id="shape21-7" v:mID="21" v:groupContext="shape" transform="translate(180.709,-368.982)">
			<title>工作表.21</title>
			<ellipse cx="11.3386" cy="583.937" rx="11.3386" ry="11.3386" class="st3"/>
		</g>
		<g id="shape22-9" v:mID="22" v:groupContext="shape" transform="translate(118.346,-283.942)">
			<title>工作表.22</title>
			<ellipse cx="11.3386" cy="583.937" rx="11.3386" ry="11.3386" class="st3"/>
		</g>
		<g id="shape24-11" v:mID="24" v:groupContext="shape" transform="translate(95.6693,-210.241)">
			<title>工作表.24</title>
			<ellipse cx="11.3386" cy="583.937" rx="11.3386" ry="11.3386" class="st3"/>
		</g>
		<g id="shape25-13" v:mID="25" v:groupContext="shape" transform="translate(152.362,-230.084)">
			<title>工作表.25</title>
			<rect x="0" y="572.598" width="22.6772" height="22.6772" class="st4"/>
		</g>
		<g id="shape28-15" v:mID="28" v:groupContext="shape" transform="translate(175.039,-274.021)">
			<title>工作表.28</title>
			<rect x="0" y="572.598" width="22.6772" height="22.6772" class="st4"/>
		</g>
		<g id="shape29-17" v:mID="29" v:groupContext="shape" transform="translate(135.354,-340.635)">
			<title>工作表.29</title>
			<rect x="0" y="572.598" width="22.6772" height="22.6772" class="st4"/>
		</g>
		<g id="shape30-19" v:mID="30" v:groupContext="shape" transform="translate(536.89,-199.018) rotate(45)">
			<title>工作表.30</title>
			<path d="M11.7 595.28 L12.06 595.28 L27.42 595.28" class="st5"/>
		</g>
		<g id="shape31-25" v:mID="31" v:groupContext="shape" transform="translate(-262.892,-177.622) rotate(-45)">
			<title>工作表.31</title>
			<path d="M11.7 595.28 L12.06 595.28 L33.49 595.28" class="st5"/>
		</g>
		<g id="shape32-30" v:mID="32" v:groupContext="shape" transform="translate(-405.331,269.069) rotate(-87.1586)">
			<title>工作表.32</title>
			<path d="M11.7 595.28 L12.06 595.28 L72.4 595.28" class="st5"/>
		</g>
		<g id="shape35-35" v:mID="35" v:groupContext="shape" transform="translate(681.925,66.7617) rotate(74.4635)">
			<title>工作表.35</title>
			<path d="M11.7 595.28 L12.06 595.28 L65.48 595.28" class="st5"/>
		</g>
		<g id="shape36-40" v:mID="36" v:groupContext="shape" transform="translate(-95.9402,-185.6) rotate(-21.0353)">
			<title>工作表.36</title>
			<path d="M11.7 595.28 L12.06 595.28 L37.11 595.28" class="st5"/>
		</g>
		<g id="shape37-45" v:mID="37" v:groupContext="shape" transform="translate(597.616,-64.0976) rotate(51.0447)">
			<title>工作表.37</title>
			<path d="M11.7 595.28 L12.06 595.28 L41.61 595.28" class="st5"/>
		</g>
		<g id="shape41-50" v:mID="41" v:groupContext="shape" transform="translate(311.811,-184.252)">
			<title>工作表.41</title>
			<path d="M0 595.28 L180 559.9 L178.58 333.12 L0 368.61 L0 595.28 Z" class="st1"/>
		</g>
		<g id="shape42-53" v:mID="42" v:groupContext="shape" transform="translate(576.142,-184.252)">
			<title>工作表.42</title>
			<path d="M0 595.28 L180 559.9 L178.58 333.12 L0 368.61 L0 595.28 Z" class="st1"/>
		</g>
		<g id="shape43-56" v:mID="43" v:groupContext="shape" transform="translate(340.157,-343.725)">
			<title>工作表.43</title>
			<ellipse cx="11.3386" cy="583.937" rx="11.3386" ry="11.3386" class="st3"/>
		</g>
		<g id="shape44-58" v:mID="44" v:groupContext="shape" transform="translate(390.472,-388.346)">
			<title>工作表.44</title>
			<ellipse cx="11.3386" cy="583.937" rx="11.3386" ry="11.3386" class="st3"/>
		</g>
		<g id="shape45-60" v:mID="45" v:groupContext="shape" transform="translate(453.543,-325.984)">
			<title>工作表.45</title>
			<ellipse cx="11.3386" cy="583.937" rx="11.3386" ry="11.3386" class="st3"/>
		</g>
		<g id="shape46-62" v:mID="46" v:groupContext="shape" transform="translate(402.52,-303.99)">
			<title>工作表.46</title>
			<rect x="0" y="572.598" width="22.6772" height="22.6772" class="st4"/>
		</g>
		<g id="shape47-64" v:mID="47" v:groupContext="shape" transform="translate(354.331,-230.084)">
			<title>工作表.47</title>
			<rect x="0" y="572.598" width="22.6772" height="22.6772" class="st4"/>
		</g>
		<g id="shape49-66" v:mID="49" v:groupContext="shape" transform="translate(432.935,-236.519)">
			<title>工作表.49</title>
			<rect x="0" y="572.598" width="22.6772" height="22.6772" class="st4"/>
		</g>
		<g id="shape50-68" v:mID="50" v:groupContext="shape" transform="translate(998.883,155.945) rotate(85.1544)">
			<title>工作表.50</title>
			<path d="M11.7 595.28 L12.06 595.28 L62.6 595.28" class="st5"/>
		</g>
		<g id="shape51-73" v:mID="51" v:groupContext="shape" transform="translate(39.262,668.556) rotate(-135)">
			<title>工作表.51</title>
			<path d="M11.7 595.28 L12.06 595.28 L67.66 595.28" class="st5"/>
		</g>
		<g id="shape52-78" v:mID="52" v:groupContext="shape" transform="translate(783.318,-177.584) rotate(45)">
			<title>工作表.52</title>
			<path d="M11.7 595.28 L12.06 595.28 L56.75 595.28" class="st5"/>
		</g>
		<g id="shape53-83" v:mID="53" v:groupContext="shape" transform="translate(-221.821,419.123) rotate(-97.3942)">
			<title>工作表.53</title>
			<path d="M11.7 595.28 L12.06 595.28 L92.92 595.28" class="st5"/>
		</g>
		<g id="shape55-88" v:mID="55" v:groupContext="shape" transform="translate(-132.113,169.465) rotate(-73.746)">
			<title>工作表.55</title>
			<path d="M11.7 595.28 L12.06 595.28 L71.11 595.28" class="st5"/>
		</g>
		<g id="shape56-93" v:mID="56" v:groupContext="shape" transform="translate(711.496,-374.173)">
			<title>工作表.56</title>
			<ellipse cx="11.3386" cy="583.937" rx="11.3386" ry="11.3386" class="st3"/>
		</g>
		<g id="shape57-95" v:mID="57" v:groupContext="shape" transform="translate(721.814,-290.551)">
			<title>工作表.57</title>
			<rect x="0" y="572.598" width="22.6772" height="22.6772" class="st4"/>
		</g>
		<g id="shape58-97" v:mID="58" v:groupContext="shape" transform="translate(626.457,-388.346)">
			<title>工作表.58</title>
			<ellipse cx="11.3386" cy="583.937" rx="11.3386" ry="11.3386" class="st3"/>
		</g>
		<g id="shape59-99" v:mID="59" v:groupContext="shape" transform="translate(689.726,-325.984)">
			<title>工作表.59</title>
			<ellipse cx="11.3386" cy="583.937" rx="11.3386" ry="11.3386" class="st3"/>
		</g>
		<g id="shape60-101" v:mID="60" v:groupContext="shape" transform="translate(680.315,-232.441)">
			<title>工作表.60</title>
			<ellipse cx="11.3386" cy="583.937" rx="11.3386" ry="11.3386" class="st3"/>
		</g>
		<g id="shape61-103" v:mID="61" v:groupContext="shape" transform="translate(623.622,-232.441)">
			<title>工作表.61</title>
			<rect x="0" y="572.598" width="22.6772" height="22.6772" class="st4"/>
		</g>
		<g id="shape62-105" v:mID="62" v:groupContext="shape" transform="translate(600.945,-303.99)">
			<title>工作表.62</title>
			<rect x="0" y="572.598" width="22.6772" height="22.6772" class="st4"/>
		</g>
		<g id="shape63-107" v:mID="63" v:groupContext="shape" transform="translate(1194.33,398.26) rotate(108.955)">
			<title>工作表.63</title>
			<path d="M11.7 595.28 L12.06 595.28 L67.36 595.28" class="st5"/>
		</g>
		<g id="shape66-112" v:mID="66" v:groupContext="shape" transform="translate(270.234,673.362) rotate(-135)">
			<title>工作表.66</title>
			<path d="M11.7 595.28 L12.06 595.28 L66.86 595.28" class="st5"/>
		</g>
		<g id="shape67-117" v:mID="67" v:groupContext="shape" transform="translate(1235.64,512.272) rotate(119.445)">
			<title>工作表.67</title>
			<path d="M11.7 595.28 L12.06 595.28 L31.02 595.28" class="st5"/>
		</g>
		<g id="shape68-122" v:mID="68" v:groupContext="shape" transform="translate(1259.97,552.088) rotate(115.306)">
			<title>工作表.68</title>
			<path d="M11.7 595.28 L12.06 595.28 L51.07 595.28" class="st5"/>
		</g>
		<g id="shape69-127" v:mID="69" v:groupContext="shape" transform="translate(646.299,-240.945)">
			<title>工作表.69</title>
			<path d="M11.7 595.28 L12.06 595.28 L34.38 595.28" class="st5"/>
		</g>
		<g id="shape70-132" v:mID="70" v:groupContext="shape" transform="translate(342.405,822.538) rotate(-144.129)">
			<title>工作表.70</title>
			<path d="M11.7 595.28 L12.06 595.28 L83.42 595.28" class="st5"/>
		</g>
		<g id="shape72-137" v:mID="72" v:groupContext="shape" transform="translate(412.343,-395.485)">
			<title>工作表.72</title>
			<path d="M0 595.28 L214.92 595.28" class="st7"/>
		</g>
		<g id="shape74-140" v:mID="74" v:groupContext="shape" transform="translate(477.896,-344.322) rotate(0.395148)">
			<title>工作表.74</title>
			<path d="M0 595.28 L217.37 595.28" class="st7"/>
		</g>
		<g id="shape75-143" v:mID="75" v:groupContext="shape" transform="translate(175.039,-240.945)">
			<title>工作表.75</title>
			<path d="M0 595.28 L179.29 595.28" class="st7"/>
		</g>
		<g id="shape76-146" v:mID="76" v:groupContext="shape" transform="translate(56.6929,-113.386)">
			<title>工作表.76</title>
			<desc>Prov Doc 1</desc>
			<v:textBlock v:margins="rect(4,4,4,4)" v:tabSpace="42.5197"/>
			<v:textRect cx="88.5827" cy="574.016" width="177.17" height="42.5197"/>
			<rect x="0" y="552.756" width="177.165" height="42.5197" class="st8"/>
			<text x="48.58" y="578.82" class="st9" v:langID="2052"><v:paragraph v:horizAlign="1"/><v:tabList/>Prov Doc 1</text>		</g>
		<g id="shape78-149" v:mID="78" v:groupContext="shape" transform="translate(576.142,-113.386)">
			<title>工作表.78</title>
			<desc>Prov Doc 3</desc>
			<v:textBlock v:margins="rect(4,4,4,4)" v:tabSpace="42.5197"/>
			<v:textRect cx="88.5827" cy="574.016" width="177.17" height="42.5197"/>
			<rect x="0" y="552.756" width="177.165" height="42.5197" class="st8"/>
			<text x="48.53" y="579.34" class="st9" v:langID="2052"><v:paragraph v:horizAlign="1"/><v:tabList/>Prov Doc <tspan
						class="st10" v:langID="1033">3</tspan></text>		</g>
		<g id="shape79-153" v:mID="79" v:groupContext="shape" transform="translate(311.811,-113.386)">
			<title>工作表.79</title>
			<desc>Prov Doc 2</desc>
			<v:textBlock v:margins="rect(4,4,4,4)" v:tabSpace="42.5197"/>
			<v:textRect cx="88.5827" cy="574.016" width="177.17" height="42.5197"/>
			<rect x="0" y="552.756" width="177.165" height="42.5197" class="st8"/>
			<text x="48.58" y="578.82" class="st9" v:langID="2052"><v:paragraph v:horizAlign="1"/><v:tabList/>Prov Doc 2</text>		</g>
	</g>
</svg>
